<svg width="842" height="596" viewBox="0 0 842 596" fill="none" xmlns="http://www.w3.org/2000/svg">
<g clip-path="url(#clip0)">
<path fill-rule="evenodd" clip-rule="evenodd" d="M582.21 189.092L610.16 205.137C614.009 233.387 607.001 261.182 594.693 286.669H568.458C588.068 252.182 591.967 220.735 575.942 192.536L582.21 189.092ZM223.647 438.394L222.882 261.604C143.528 322.065 87.9795 417.467 129.513 461.354C170.581 505.116 258.056 503.046 344.604 469.403H378.422C269.587 515.701 157.305 516.465 119.534 453.164C90.1956 403.992 139.388 312.205 222.882 240.941V165.174L252.729 150.635L299.413 165.174L330.792 94L384.364 136.859L385.702 156.876L402.731 138.388C455.668 133.262 508.475 130.437 560.387 143.746L561.919 151.4L516.391 159.955C495.851 153.437 475.313 153.581 454.773 158.287V286.669H446.354V153.696H402.731V286.669H385.128V165.941L330.027 120.021V439.159H300.178L300.945 182.012L252.729 169.002V438.394H223.647Z" fill="#05386B"/>
<path fill-rule="evenodd" clip-rule="evenodd" d="M385.191 319.131H384.264H381.128C375.048 319.131 369.794 320.838 365.366 324.249C360.475 328.009 358.03 332.987 358.03 339.183C358.03 345.31 360.508 350.253 365.465 354.013C369.892 357.494 375.113 359.234 381.128 359.234H385.191V377.824H379.739C368.57 377.824 359.021 374.378 351.091 367.486C342.698 360.174 338.501 350.74 338.501 339.183C338.501 327.695 342.731 318.261 351.191 310.881C359.121 303.989 368.637 300.542 379.739 300.542H489.552L471.461 319.131H437.334V377.824H417.805V319.131H385.191ZM526.566 377.824H505.685V367.381H468.27L489.256 348.478H505.685V328.078L447.601 379.6V352.342L505.685 300.542H526.566V377.824ZM603.076 377.824H582.435V348.478H556.241V377.824H535.6V317.251L556.241 298.662V329.888H582.435V300.542H603.076V377.824ZM692.986 300.542L655.441 337.32L672.035 352.864V379.6L640.812 350.88L631.762 359.339V377.824H611.726V317.46L631.762 298.871V332.186L665.526 300.542H692.986ZM789.356 377.442V348.095H815.236V377.442H835.629V316.869L815.236 298.28V329.505H789.356V300.159H768.964V359.149L759.203 359.132V300.542H741.88L706.923 332.917V298.975L686.728 317.565V379.182L739.009 331.194V377.824L789.356 377.442Z" fill="#05386B"/>
<path fill-rule="evenodd" clip-rule="evenodd" d="M568.806 126.909L566.51 157.905L497.249 170.915L563.067 175.124L551.587 210.712L579.138 181.247L605.159 193.492L590.618 169.385L621.613 152.93L585.261 157.522L568.806 126.909Z" fill="#05386B"/>
<path fill-rule="evenodd" clip-rule="evenodd" d="M364.383 424.863H359.025V407.64L355.152 418.819H351.436L347.562 407.64V424.863H342.486V399.144H348.74L353.442 412.045L358.125 399.144H364.383V424.863ZM385.538 415.17C385.538 418.359 384.786 420.877 383.272 422.711C381.764 424.551 379.643 425.47 376.914 425.47C374.18 425.47 372.059 424.551 370.55 422.711C369.042 420.877 368.285 418.359 368.285 415.17C368.285 411.962 369.047 409.438 370.565 407.604C372.082 405.777 374.199 404.858 376.914 404.858C379.663 404.858 381.788 405.783 383.287 407.623C384.79 409.468 385.538 411.98 385.538 415.17ZM379.322 419.887C379.652 419.391 379.897 418.796 380.059 418.1C380.222 417.404 380.309 416.437 380.309 415.204C380.309 414.066 380.222 413.111 380.054 412.34C379.887 411.567 379.652 410.954 379.351 410.488C379.054 410.016 378.695 409.686 378.274 409.491C377.852 409.291 377.398 409.197 376.914 409.197C376.426 409.197 375.994 409.273 375.616 409.438C375.233 409.598 374.874 409.922 374.53 410.405C374.218 410.854 373.974 411.472 373.791 412.251C373.61 413.035 373.519 414.02 373.519 415.204C373.519 416.266 373.595 417.186 373.754 417.965C373.917 418.736 374.146 419.362 374.458 419.834C374.754 420.287 375.114 420.612 375.531 420.818C375.947 421.031 376.42 421.13 376.952 421.13C377.412 421.13 377.848 421.036 378.264 420.848C378.681 420.659 379.035 420.334 379.322 419.887ZM397.364 425.382C395.99 425.382 394.737 425.181 393.596 424.774C392.462 424.374 391.471 423.754 390.633 422.911C389.799 422.068 389.152 421.013 388.694 419.733C388.238 418.454 388.009 416.956 388.009 415.24C388.009 413.436 388.252 411.874 388.746 410.559C389.235 409.25 389.919 408.159 390.8 407.292C391.653 406.479 392.633 405.878 393.745 405.499C394.856 405.117 396.014 404.928 397.212 404.928C398.285 404.928 399.275 405.075 400.185 405.358C401.09 405.647 401.937 406.024 402.723 406.485V411.785H402.009C401.813 411.579 401.574 411.337 401.3 411.06C401.024 410.783 400.683 410.511 400.28 410.247C399.898 409.999 399.476 409.786 399.021 409.621C398.561 409.45 398.031 409.368 397.422 409.368C396.072 409.368 395.038 409.893 394.314 410.948C393.586 412.003 393.227 413.436 393.227 415.24C393.227 417.109 393.596 418.525 394.343 419.491C395.085 420.458 396.139 420.942 397.504 420.942C398.14 420.942 398.715 420.854 399.223 420.677C399.735 420.494 400.156 420.287 400.492 420.045C400.812 419.816 401.09 419.574 401.335 419.32C401.578 419.067 401.804 418.819 402.009 418.578H402.723V423.879C401.929 424.338 401.1 424.703 400.232 424.975C399.366 425.246 398.413 425.382 397.364 425.382ZM423.064 424.863H417.226L413.009 417.174H411.395V424.863H406.342V405.465H411.395V413.253C412.328 413.242 412.974 413.118 413.329 412.882C413.683 412.646 414.095 412.021 414.564 411.006C414.703 410.712 414.871 410.323 415.067 409.851C415.264 409.379 415.421 409.014 415.531 408.766C416.044 407.634 416.648 406.797 417.332 406.249C418.022 405.701 418.979 405.429 420.204 405.429C420.559 405.429 420.932 405.435 421.33 405.446C421.728 405.459 422.001 405.465 422.139 405.465V410.647H420.766C420.204 410.647 419.755 410.818 419.424 411.166C419.094 411.508 418.807 412.021 418.563 412.699C418.357 413.265 418.169 413.714 418.002 414.043C417.829 414.367 417.619 414.65 417.356 414.881L423.064 424.863ZM441.719 415.17C441.719 418.359 440.967 420.877 439.454 422.711C437.946 424.551 435.824 425.47 433.095 425.47C430.361 425.47 428.239 424.551 426.731 422.711C425.223 420.877 424.466 418.359 424.466 415.17C424.466 411.962 425.228 409.438 426.745 407.604C428.264 405.777 430.38 404.858 433.095 404.858C435.844 404.858 437.969 405.783 439.468 407.623C440.971 409.468 441.719 411.98 441.719 415.17ZM435.503 419.887C435.833 419.391 436.078 418.796 436.241 418.1C436.403 417.404 436.49 416.437 436.49 415.204C436.49 414.066 436.403 413.111 436.236 412.34C436.069 411.567 435.833 410.954 435.532 410.488C435.235 410.016 434.876 409.686 434.455 409.491C434.034 409.291 433.579 409.197 433.095 409.197C432.606 409.197 432.175 409.273 431.797 409.438C431.415 409.598 431.054 409.922 430.711 410.405C430.4 410.854 430.154 411.472 429.973 412.251C429.791 413.035 429.701 414.02 429.701 415.204C429.701 416.266 429.776 417.186 429.935 417.965C430.097 418.736 430.327 419.362 430.639 419.834C430.935 420.287 431.294 420.612 431.711 420.818C432.127 421.031 432.601 421.13 433.133 421.13C433.593 421.13 434.029 421.036 434.445 420.848C434.862 420.659 435.217 420.334 435.503 419.887ZM461.135 419.008C461.135 419.94 460.982 420.771 460.681 421.497C460.374 422.222 459.972 422.823 459.464 423.306C458.827 423.919 458.157 424.332 457.453 424.545C456.744 424.757 455.907 424.863 454.935 424.863H445.338V405.465H454.528C455.676 405.465 456.524 405.512 457.065 405.6C457.611 405.695 458.142 405.918 458.664 406.278C459.215 406.643 459.631 407.133 459.91 407.746C460.182 408.354 460.322 409.079 460.322 409.922C460.322 410.877 460.101 411.714 459.655 412.434C459.21 413.153 458.674 413.701 458.047 414.085V414.273C458.918 414.538 459.65 415.069 460.244 415.872C460.838 416.673 461.135 417.716 461.135 419.008ZM455.226 411.301C455.226 410.588 455.055 410.081 454.705 409.781C454.35 409.486 453.79 409.332 453.014 409.332H450.348V413.2H453.096C453.781 413.2 454.307 413.035 454.676 412.694C455.044 412.351 455.226 411.891 455.226 411.301ZM455.93 418.819C455.93 417.976 455.734 417.387 455.346 417.044C454.959 416.709 454.388 416.538 453.632 416.538H450.348V420.977H453.713C454.408 420.977 454.949 420.783 455.341 420.399C455.734 420.011 455.93 419.486 455.93 418.819ZM473 425.382C471.627 425.382 470.373 425.181 469.233 424.774C468.098 424.374 467.107 423.754 466.268 422.911C465.435 422.068 464.788 421.013 464.33 419.733C463.874 418.454 463.644 416.956 463.644 415.24C463.644 413.436 463.888 411.874 464.382 410.559C464.871 409.25 465.555 408.159 466.436 407.292C467.288 406.479 468.269 405.878 469.38 405.499C470.492 405.117 471.65 404.928 472.847 404.928C473.92 404.928 474.911 405.075 475.821 405.358C476.726 405.647 477.573 406.024 478.359 406.485V411.785H477.645C477.449 411.579 477.21 411.337 476.936 411.06C476.659 410.783 476.319 410.511 475.916 410.247C475.533 409.999 475.112 409.786 474.657 409.621C474.198 409.45 473.666 409.368 473.058 409.368C471.708 409.368 470.674 409.893 469.951 410.948C469.222 412.003 468.863 413.436 468.863 415.24C468.863 417.109 469.233 418.525 469.979 419.491C470.721 420.458 471.775 420.942 473.14 420.942C473.776 420.942 474.35 420.854 474.859 420.677C475.37 420.494 475.792 420.287 476.127 420.045C476.448 419.816 476.726 419.574 476.97 419.32C477.214 419.067 477.44 418.819 477.645 418.578H478.359V423.879C477.564 424.338 476.736 424.703 475.868 424.975C475.002 425.246 474.049 425.382 473 425.382ZM498.699 424.863H492.862L488.644 417.174H487.03V424.863H481.979V405.465H487.03V413.253C487.964 413.242 488.61 413.118 488.964 412.882C489.319 412.646 489.731 412.021 490.2 411.006C490.339 410.712 490.506 410.323 490.703 409.851C490.899 409.379 491.057 409.014 491.167 408.766C491.68 407.634 492.283 406.797 492.968 406.249C493.658 405.701 494.615 405.429 495.84 405.429C496.195 405.429 496.568 405.435 496.966 405.446C497.363 405.459 497.636 405.465 497.776 405.465V410.647H496.401C495.84 410.647 495.391 410.818 495.06 411.166C494.73 411.508 494.443 412.021 494.199 412.699C493.992 413.265 493.805 413.714 493.638 414.043C493.466 414.367 493.255 414.65 492.992 414.881L498.699 424.863ZM517.172 424.863H512.279V412.993L505.433 424.863H501.252V405.465H506.149V416.089L512.489 405.465H517.172V424.863ZM537.862 424.863H532.969V412.993L526.122 424.863H521.941V405.465H526.84V416.089L533.179 405.465H537.862V424.863ZM536.124 396.862C536.124 398.737 535.603 400.27 534.558 401.455C533.52 402.641 531.973 403.236 529.924 403.236C527.884 403.236 526.342 402.641 525.293 401.449C524.25 400.258 523.723 398.725 523.723 396.862H527.625C527.64 398 527.822 398.849 528.157 399.409C528.492 399.969 529.082 400.246 529.924 400.246C530.776 400.246 531.365 399.975 531.701 399.427C532.031 398.879 532.207 398.023 532.227 396.862H536.124ZM567.799 404.114H558.122V424.863H552.735V399.144H567.799V404.114ZM586.86 415.17C586.86 418.359 586.109 420.877 584.596 422.711C583.087 424.551 580.966 425.47 578.236 425.47C575.503 425.47 573.381 424.551 571.873 422.711C570.365 420.877 569.609 418.359 569.609 415.17C569.609 411.962 570.37 409.438 571.887 407.604C573.405 405.777 575.522 404.858 578.236 404.858C580.985 404.858 583.111 405.783 584.61 407.623C586.113 409.468 586.86 411.98 586.86 415.17ZM580.644 419.887C580.975 419.391 581.22 418.796 581.383 418.1C581.546 417.404 581.632 416.437 581.632 415.204C581.632 414.066 581.546 413.111 581.378 412.34C581.211 411.567 580.975 410.954 580.674 410.488C580.377 410.016 580.018 409.686 579.597 409.491C579.176 409.291 578.72 409.197 578.236 409.197C577.748 409.197 577.318 409.273 576.94 409.438C576.556 409.598 576.197 409.922 575.852 410.405C575.541 410.854 575.296 411.472 575.115 412.251C574.933 413.035 574.843 414.02 574.843 415.204C574.843 416.266 574.918 417.186 575.076 417.965C575.239 418.736 575.469 419.362 575.78 419.834C576.077 420.287 576.436 420.612 576.853 420.818C577.269 421.031 577.744 421.13 578.276 421.13C578.735 421.13 579.171 421.036 579.587 420.848C580.004 420.659 580.359 420.334 580.644 419.887ZM598.687 425.382C597.314 425.382 596.059 425.181 594.92 424.774C593.785 424.374 592.794 423.754 591.956 422.911C591.123 422.068 590.476 421.013 590.016 419.733C589.561 418.454 589.332 416.956 589.332 415.24C589.332 413.436 589.576 411.874 590.069 410.559C590.557 409.25 591.242 408.159 592.123 407.292C592.976 406.479 593.957 405.878 595.068 405.499C596.178 405.117 597.337 404.928 598.534 404.928C599.607 404.928 600.598 405.075 601.508 405.358C602.413 405.647 603.26 406.024 604.046 406.485V411.785H603.332C603.135 411.579 602.897 411.337 602.624 411.06C602.346 410.783 602.005 410.511 601.604 410.247C601.22 409.999 600.799 409.786 600.344 409.621C599.885 409.45 599.353 409.368 598.745 409.368C597.394 409.368 596.361 409.893 595.637 410.948C594.91 412.003 594.551 413.436 594.551 415.24C594.551 417.109 594.92 418.525 595.667 419.491C596.409 420.458 597.462 420.942 598.827 420.942C599.464 420.942 600.038 420.854 600.546 420.677C601.058 420.494 601.479 420.287 601.814 420.045C602.136 419.816 602.413 419.574 602.657 419.32C602.901 419.067 603.126 418.819 603.332 418.578H604.046V423.879C603.251 424.338 602.422 424.703 601.556 424.975C600.689 425.246 599.737 425.382 598.687 425.382ZM614.777 418.005L618.368 405.465H623.559L614.805 431.98H609.337L611.832 424.728L605.702 405.465H611.003L614.777 418.005ZM642.792 429.662H638.286V424.792H629.003V429.662H624.496V420.53H625.804C626.512 418.707 627.083 416.485 627.509 413.849C627.935 411.219 628.145 408.424 628.145 405.465H641.165V420.53H642.792V429.662ZM636.141 420.53V409.798H632.675C632.516 411.933 632.249 413.914 631.871 415.741C631.492 417.575 631.038 419.167 630.501 420.53H636.141ZM655.764 419.804V415.759C655.084 415.83 654.341 415.925 653.547 416.043C652.752 416.166 652.148 416.308 651.737 416.467C651.234 416.661 650.847 416.951 650.583 417.322C650.315 417.699 650.181 418.188 650.181 418.802C650.181 419.202 650.21 419.533 650.267 419.786C650.324 420.04 650.463 420.281 650.689 420.511C650.905 420.741 651.158 420.913 651.459 421.019C651.757 421.131 652.226 421.183 652.862 421.183C653.366 421.183 653.877 421.054 654.399 420.806C654.917 420.553 655.371 420.216 655.764 419.804ZM655.764 422.806C655.496 423.059 655.156 423.365 654.754 423.725C654.351 424.079 653.973 424.361 653.619 424.568C653.121 424.846 652.609 425.052 652.077 425.181C651.541 425.317 650.957 425.382 650.324 425.382C648.825 425.382 647.571 424.81 646.561 423.672C645.551 422.528 645.048 421.072 645.048 419.303C645.048 417.882 645.306 416.726 645.819 415.83C646.336 414.928 647.063 414.22 648.007 413.701C648.941 413.189 650.104 412.817 651.488 412.599C652.872 412.38 654.309 412.215 655.792 412.115V412.009C655.792 410.942 655.438 410.199 654.725 409.792C654.016 409.385 652.967 409.179 651.584 409.179C650.75 409.179 649.864 409.362 648.922 409.722C647.973 410.087 647.298 410.365 646.887 410.559H646.422V405.878C646.953 405.706 647.825 405.499 649.027 405.264C650.223 405.028 651.43 404.91 652.637 404.91C655.511 404.91 657.583 405.452 658.857 406.544C660.135 407.634 660.773 409.338 660.773 411.667V424.863H655.764V422.806ZM681.859 414.898C681.859 416.496 681.659 417.952 681.261 419.267C680.864 420.576 680.343 421.661 679.696 422.517C679.025 423.413 678.264 424.091 677.411 424.551C676.558 425.01 675.649 425.24 674.677 425.24C673.777 425.24 673.016 425.122 672.389 424.886C671.761 424.65 671.12 424.321 670.469 423.896V431.98H665.417V405.465H670.469V407.487C671.245 406.726 672.035 406.107 672.843 405.636C673.653 405.164 674.586 404.928 675.644 404.928C677.608 404.928 679.135 405.819 680.223 407.587C681.314 409.362 681.859 411.797 681.859 414.898ZM676.655 415.016C676.655 413.13 676.392 411.756 675.87 410.907C675.343 410.051 674.514 409.627 673.385 409.627C672.91 409.627 672.417 409.716 671.915 409.893C671.407 410.075 670.924 410.329 670.469 410.665V420.423C670.804 420.582 671.162 420.688 671.546 420.736C671.929 420.783 672.312 420.806 672.686 420.806C674.022 420.806 675.018 420.323 675.674 419.362C676.324 418.401 676.655 416.951 676.655 415.016ZM693.71 425.382C692.336 425.382 691.082 425.181 689.942 424.774C688.807 424.374 687.817 423.754 686.979 422.911C686.145 422.068 685.498 421.013 685.039 419.733C684.584 418.454 684.355 416.956 684.355 415.24C684.355 413.436 684.598 411.874 685.092 410.559C685.58 409.25 686.265 408.159 687.146 407.292C687.999 406.479 688.979 405.878 690.091 405.499C691.201 405.117 692.359 404.928 693.558 404.928C694.63 404.928 695.621 405.075 696.53 405.358C697.435 405.647 698.283 406.024 699.069 406.485V411.785H698.355C698.158 411.579 697.919 411.337 697.646 411.06C697.369 410.783 697.029 410.511 696.626 410.247C696.243 409.999 695.821 409.786 695.367 409.621C694.908 409.45 694.376 409.368 693.768 409.368C692.417 409.368 691.383 409.893 690.66 410.948C689.932 412.003 689.573 413.436 689.573 415.24C689.573 417.109 689.942 418.525 690.689 419.491C691.431 420.458 692.485 420.942 693.849 420.942C694.486 420.942 695.061 420.854 695.568 420.677C696.081 420.494 696.502 420.287 696.837 420.045C697.158 419.816 697.435 419.574 697.68 419.32C697.923 419.067 698.149 418.819 698.355 418.578H699.069V423.879C698.274 424.338 697.445 424.703 696.578 424.975C695.711 425.246 694.759 425.382 693.71 425.382ZM715.54 409.68H710.517V424.863H705.466V409.68H700.443V405.465H715.54V409.68ZM733.86 419.008C733.86 419.94 733.706 420.771 733.404 421.497C733.098 422.222 732.697 422.823 732.188 423.306C731.551 423.919 730.881 424.332 730.178 424.545C729.469 424.757 728.631 424.863 727.659 424.863H718.063V405.465H727.252C728.401 405.465 729.249 405.512 729.79 405.6C730.336 405.695 730.867 405.918 731.389 406.278C731.94 406.643 732.356 407.133 732.635 407.746C732.907 408.354 733.045 409.079 733.045 409.922C733.045 410.877 732.825 411.714 732.38 412.434C731.935 413.153 731.399 413.701 730.771 414.085V414.273C731.642 414.538 732.375 415.069 732.969 415.872C733.562 416.673 733.86 417.716 733.86 419.008ZM727.95 411.301C727.95 410.588 727.778 410.081 727.429 409.781C727.075 409.486 726.514 409.332 725.739 409.332H723.072V413.2H725.82C726.505 413.2 727.031 413.035 727.4 412.694C727.769 412.351 727.95 411.891 727.95 411.301ZM728.655 418.819C728.655 417.976 728.459 417.387 728.07 417.044C727.683 416.709 727.113 416.538 726.357 416.538H723.072V420.977H726.438C727.133 420.977 727.673 420.783 728.066 420.399C728.459 420.011 728.655 419.486 728.655 418.819ZM753.032 416.313H741.473C741.549 417.834 742.018 418.996 742.885 419.804C743.747 420.606 745.021 421.013 746.707 421.013C747.775 421.013 748.804 420.777 749.805 420.305C750.805 419.828 751.595 419.326 752.179 418.784H752.74V423.772C751.595 424.338 750.523 424.745 749.512 424.998C748.502 425.252 747.386 425.382 746.161 425.382C743.001 425.382 740.577 424.503 738.892 422.758C737.211 421.006 736.369 418.513 736.369 415.276C736.369 412.074 737.163 409.539 738.758 407.664C740.353 405.794 742.541 404.858 745.319 404.858C747.879 404.858 749.805 405.659 751.097 407.251C752.391 408.849 753.032 411.143 753.032 414.138V416.313ZM748.008 412.669C747.985 411.366 747.722 410.388 747.223 409.733C746.73 409.073 745.96 408.749 744.911 408.749C743.938 408.749 743.139 409.055 742.512 409.68C741.885 410.3 741.534 411.296 741.459 412.669H748.008ZM772.501 424.863H767.453V416.591H761.646V424.863H756.594V405.465H761.646V412.151H767.453V405.465H772.501V424.863ZM793.176 424.863H788.129V416.591H782.321V424.863H777.27V405.465H782.321V412.151H788.129V405.465H793.176V424.863ZM808.071 418.365C808.071 417.539 807.871 416.915 807.469 416.502C807.066 416.089 806.487 415.883 805.73 415.883H802.982V420.942H805.73C806.239 420.942 806.645 420.854 806.966 420.677C807.282 420.494 807.517 420.275 807.666 420.011C807.828 419.757 807.933 419.491 807.991 419.215C808.044 418.937 808.071 418.654 808.071 418.365ZM813.262 418.319C813.262 419.309 813.104 420.222 812.788 421.06C812.468 421.903 812.051 422.587 811.539 423.118C810.902 423.754 810.246 424.203 809.566 424.468C808.891 424.733 807.976 424.863 806.827 424.863H797.945V405.465H802.982V411.944H806.837C807.972 411.944 808.886 412.045 809.581 412.245C810.279 412.445 810.94 412.835 811.568 413.413C812.128 413.931 812.549 414.621 812.836 415.494C813.119 416.361 813.262 417.304 813.262 418.319ZM820.081 424.863H815.029V405.465H820.081V424.863ZM840.784 424.863H835.891V412.993L829.045 424.863H824.864V405.465H829.762V416.089L836.102 405.465H840.784V424.863ZM839.047 396.862C839.047 398.737 838.525 400.27 837.481 401.455C836.441 402.641 834.895 403.236 832.846 403.236C830.806 403.236 829.264 402.641 828.216 401.449C827.173 400.258 826.645 398.725 826.645 396.862H830.548C830.561 398 830.744 398.849 831.08 399.409C831.413 399.969 832.003 400.246 832.846 400.246C833.699 400.246 834.287 399.975 834.622 399.427C834.953 398.879 835.129 398.023 835.15 396.862H839.047Z" fill="#05386B"/>
<path fill-rule="evenodd" clip-rule="evenodd" d="M359.725 436.298H353.314V457.047H348.022V436.298H341.615V431.328H359.725V436.298ZM377.874 448.497H366.518C366.593 450.018 367.054 451.18 367.905 451.988C368.752 452.79 370.003 453.196 371.66 453.196C372.708 453.196 373.719 452.96 374.703 452.489C375.686 452.012 376.462 451.51 377.037 450.968H377.587V455.955C376.462 456.522 375.409 456.929 374.416 457.182C373.423 457.436 372.327 457.565 371.123 457.565C368.019 457.565 365.638 456.687 363.983 454.942C362.331 453.19 361.503 450.697 361.503 447.46C361.503 444.258 362.284 441.723 363.85 439.847C365.417 437.978 367.566 437.041 370.295 437.041C372.811 437.041 374.703 437.843 375.973 439.434C377.243 441.033 377.874 443.326 377.874 446.321V448.497ZM372.939 444.853C372.916 443.55 372.657 442.572 372.167 441.917C371.683 441.257 370.926 440.932 369.895 440.932C368.94 440.932 368.155 441.239 367.538 441.864C366.923 442.483 366.579 443.48 366.504 444.853H372.939ZM397.556 457.047H391.765L388.458 451.245L385.066 457.047H379.389L385.494 447.354L379.487 437.649H385.273L388.528 443.35L391.792 437.649H397.484L391.464 447.2L397.556 457.047ZM415.883 457.047H410.924V448.774H405.219V457.047H400.256V437.649H405.219V444.334H410.924V437.649H415.883V457.047ZM436.388 447.354C436.388 450.543 435.649 453.061 434.162 454.895C432.681 456.735 430.597 457.654 427.915 457.654C425.229 457.654 423.145 456.735 421.664 454.895C420.182 453.061 419.438 450.543 419.438 447.354C419.438 444.146 420.187 441.622 421.678 439.788C423.169 437.961 425.248 437.041 427.915 437.041C430.615 437.041 432.704 437.967 434.177 439.807C435.653 441.651 436.388 444.163 436.388 447.354ZM430.282 452.071C430.606 451.575 430.846 450.979 431.006 450.284C431.165 449.588 431.251 448.621 431.251 447.388C431.251 446.25 431.165 445.295 431.001 444.523C430.837 443.751 430.606 443.137 430.31 442.671C430.018 442.2 429.665 441.87 429.251 441.675C428.837 441.474 428.391 441.381 427.915 441.381C427.436 441.381 427.012 441.457 426.641 441.622C426.264 441.782 425.912 442.106 425.573 442.589C425.267 443.038 425.027 443.656 424.848 444.435C424.67 445.219 424.58 446.204 424.58 447.388C424.58 448.45 424.656 449.369 424.811 450.148C424.971 450.92 425.197 451.546 425.502 452.018C425.794 452.471 426.146 452.796 426.556 453.002C426.965 453.215 427.431 453.314 427.954 453.314C428.404 453.314 428.832 453.22 429.242 453.032C429.651 452.842 430 452.518 430.282 452.071ZM455.283 457.047H450.321V441.982H446.229C446.201 442.848 446.181 443.521 446.168 443.999C446.153 444.476 446.135 445.03 446.121 445.661C446.054 447.518 445.932 449.028 445.744 450.189C445.561 451.351 445.33 452.3 445.043 453.038C444.766 453.786 444.47 454.381 444.154 454.817C443.839 455.255 443.519 455.637 443.194 455.955C442.827 456.328 442.348 456.623 441.754 456.84C441.162 457.059 440.593 457.171 440.043 457.171C439.61 457.171 439.172 457.147 438.73 457.106C438.287 457.064 438.03 457.047 437.945 457.047V452.071H438.095C438.133 452.071 438.199 452.077 438.287 452.088C438.382 452.1 438.477 452.106 438.566 452.106C438.805 452.106 439.05 452.077 439.304 452.018C439.559 451.964 439.765 451.835 439.93 451.64C440.546 450.903 440.956 449.978 441.162 448.869C441.37 447.754 441.519 446.115 441.614 443.934C441.647 443.132 441.684 442.206 441.723 441.174C441.759 440.136 441.793 438.964 441.816 437.649H455.283V457.047ZM475.789 447.354C475.789 450.543 475.051 453.061 473.564 454.895C472.082 456.735 469.998 457.654 467.318 457.654C464.632 457.654 462.547 456.735 461.065 454.895C459.584 453.061 458.841 450.543 458.841 447.354C458.841 444.146 459.588 441.622 461.079 439.788C462.57 437.961 464.65 437.041 467.318 437.041C470.018 437.041 472.106 437.967 473.578 439.807C475.055 441.651 475.789 444.163 475.789 447.354ZM469.683 452.071C470.007 451.575 470.247 450.979 470.407 450.284C470.568 449.588 470.652 448.621 470.652 447.388C470.652 446.25 470.568 445.295 470.403 444.523C470.239 443.751 470.007 443.137 469.712 442.671C469.421 442.2 469.067 441.87 468.654 441.675C468.24 441.474 467.792 441.381 467.318 441.381C466.837 441.381 466.414 441.457 466.042 441.622C465.666 441.782 465.313 442.106 464.974 442.589C464.669 443.038 464.428 443.656 464.25 444.435C464.071 445.219 463.983 446.204 463.983 447.388C463.983 448.45 464.057 449.369 464.213 450.148C464.372 450.92 464.598 451.546 464.904 452.018C465.195 452.471 465.548 452.796 465.958 453.002C466.367 453.215 466.832 453.314 467.355 453.314C467.807 453.314 468.235 453.22 468.644 453.032C469.054 452.842 469.401 452.518 469.683 452.071ZM491.859 441.965H484.308V457.047H479.346V437.649H491.859V441.965ZM509.984 457.047H505.176V445.177L498.45 457.047H494.342V437.649H499.155V448.273L505.383 437.649H509.984V457.047ZM529.289 457.047H524.331V450.378C523.504 450.596 522.694 450.779 521.904 450.92C521.114 451.068 520.257 451.139 519.326 451.139C517.647 451.139 516.325 450.614 515.366 449.559C514.406 448.503 513.925 447.035 513.925 445.143V437.649H518.913V442.106C518.913 442.955 518.936 443.627 518.983 444.117C519.03 444.606 519.189 445.078 519.467 445.525C519.721 445.927 520.069 446.227 520.512 446.422C520.954 446.616 521.617 446.716 522.497 446.716C522.728 446.716 523.029 446.705 523.405 446.675C523.785 446.646 524.091 446.604 524.331 446.564V437.649H529.289V457.047ZM549.216 448.497H537.86C537.936 450.018 538.396 451.18 539.248 451.988C540.095 452.79 541.346 453.196 543.002 453.196C544.051 453.196 545.062 452.96 546.045 452.489C547.029 452.012 547.805 451.51 548.379 450.968H548.929V455.955C547.805 456.522 546.751 456.929 545.758 457.182C544.766 457.436 543.67 457.565 542.465 457.565C539.362 457.565 536.981 456.687 535.325 454.942C533.673 453.19 532.846 450.697 532.846 447.46C532.846 444.258 533.627 441.723 535.194 439.847C536.759 437.978 538.91 437.041 541.639 437.041C544.155 437.041 546.045 437.843 547.315 439.434C548.586 441.033 549.216 443.326 549.216 446.321V448.497ZM544.282 444.853C544.258 443.55 543.999 442.572 543.51 441.917C543.026 441.257 542.268 440.932 541.238 440.932C540.283 440.932 539.498 441.239 538.882 441.864C538.265 442.483 537.921 443.48 537.846 444.853H544.282ZM560.778 457.565C559.429 457.565 558.196 457.365 557.077 456.958C555.962 456.558 554.989 455.938 554.165 455.095C553.346 454.252 552.711 453.196 552.26 451.917C551.813 450.638 551.587 449.14 551.587 447.424C551.587 445.62 551.827 444.058 552.312 442.743C552.791 441.434 553.464 440.343 554.33 439.476C555.167 438.662 556.131 438.061 557.222 437.683C558.313 437.301 559.452 437.112 560.628 437.112C561.683 437.112 562.656 437.259 563.55 437.542C564.439 437.831 565.271 438.208 566.042 438.669V443.969H565.342C565.148 443.763 564.914 443.521 564.645 443.244C564.373 442.966 564.039 442.695 563.643 442.43C563.267 442.182 562.853 441.97 562.406 441.805C561.955 441.634 561.432 441.552 560.835 441.552C559.508 441.552 558.493 442.077 557.782 443.132C557.067 444.187 556.715 445.62 556.715 447.424C556.715 449.293 557.077 450.709 557.811 451.675C558.54 452.642 559.574 453.126 560.916 453.126C561.541 453.126 562.105 453.038 562.604 452.861C563.107 452.678 563.521 452.471 563.851 452.229C564.166 451.999 564.439 451.757 564.679 451.504C564.918 451.251 565.139 451.003 565.342 450.762H566.042V456.062C565.262 456.522 564.448 456.887 563.597 457.159C562.745 457.43 561.809 457.565 560.778 457.565ZM586.026 457.047H580.292L576.147 449.358H574.562V457.047H569.599V437.649H574.562V445.437C575.479 445.426 576.114 445.301 576.463 445.065C576.81 444.83 577.215 444.205 577.676 443.19C577.812 442.896 577.977 442.507 578.17 442.035C578.362 441.563 578.518 441.198 578.626 440.95C579.129 439.818 579.722 438.981 580.395 438.433C581.073 437.884 582.013 437.613 583.217 437.613C583.566 437.613 583.932 437.619 584.323 437.63C584.713 437.642 584.982 437.649 585.118 437.649V442.831H583.768C583.217 442.831 582.776 443.002 582.451 443.35C582.125 443.692 581.845 444.205 581.603 444.882C581.402 445.449 581.218 445.897 581.054 446.227C580.884 446.551 580.677 446.834 580.419 447.065L586.026 457.047ZM604.174 457.047H599.366V445.177L592.64 457.047H588.533V437.649H593.346V448.273L599.574 437.649H604.174V457.047ZM624.5 457.047H619.693V445.177L612.967 457.047H608.86V437.649H613.671V448.273L619.9 437.649H624.5V457.047ZM622.793 429.046C622.793 430.921 622.28 432.454 621.255 433.639C620.234 434.824 618.715 435.419 616.702 435.419C614.698 435.419 613.182 434.824 612.153 433.632C611.128 432.442 610.61 430.909 610.61 429.046H614.443C614.458 430.184 614.637 431.033 614.966 431.592C615.295 432.153 615.874 432.43 616.702 432.43C617.539 432.43 618.118 432.159 618.447 431.611C618.772 431.062 618.945 430.207 618.965 429.046H622.793ZM657.175 431.328L649.71 451.9C649.277 453.085 648.779 454.039 648.22 454.765C647.659 455.49 647.081 456.027 646.483 456.374C645.886 456.728 645.298 456.958 644.714 457.064C644.13 457.171 643.549 457.218 642.969 457.218C642.324 457.218 641.563 457.2 640.683 457.159C639.799 457.118 639.215 457.082 638.934 457.047V451.434H639.248C639.441 451.504 639.781 451.575 640.27 451.645C640.754 451.723 641.238 451.763 641.713 451.763C642.625 451.763 643.36 451.652 643.929 451.434C644.494 451.215 644.837 450.926 644.968 450.566L636.628 431.328H642.377L647.476 443.521L651.682 431.328H657.175ZM675.258 457.047H670.3V448.774H664.593V457.047H659.631V437.649H664.593V444.334H670.3V437.649H675.258V457.047ZM695.583 457.047H690.776V445.177L684.05 457.047H679.943V437.649H684.754V448.273L690.982 437.649H695.583V457.047ZM715.788 451.192C715.788 452.123 715.638 452.954 715.342 453.68C715.041 454.406 714.645 455.007 714.146 455.49C713.52 456.103 712.862 456.516 712.171 456.728C711.474 456.941 710.651 457.047 709.696 457.047H700.269V437.649H709.297C710.425 437.649 711.258 437.695 711.79 437.784C712.326 437.878 712.848 438.102 713.36 438.462C713.901 438.827 714.31 439.316 714.584 439.93C714.851 440.538 714.988 441.263 714.988 442.106C714.988 443.061 714.771 443.898 714.334 444.618C713.896 445.337 713.371 445.885 712.753 446.269V446.457C713.61 446.722 714.33 447.253 714.912 448.055C715.496 448.857 715.788 449.9 715.788 451.192ZM709.983 443.485C709.983 442.772 709.814 442.265 709.47 441.965C709.122 441.67 708.571 441.516 707.81 441.516H705.19V445.384H707.889C708.563 445.384 709.08 445.219 709.442 444.877C709.804 444.535 709.983 444.075 709.983 443.485ZM710.675 451.003C710.675 450.16 710.481 449.571 710.1 449.228C709.72 448.892 709.16 448.722 708.417 448.722H705.19V453.161H708.496C709.179 453.161 709.71 452.967 710.096 452.583C710.481 452.195 710.675 451.67 710.675 451.003ZM734.624 448.497H723.267C723.343 450.018 723.804 451.18 724.655 451.988C725.502 452.79 726.753 453.196 728.409 453.196C729.458 453.196 730.469 452.96 731.453 452.489C732.436 452.012 733.211 451.51 733.786 450.968H734.336V455.955C733.211 456.522 732.159 456.929 731.165 457.182C730.173 457.436 729.077 457.565 727.873 457.565C724.768 457.565 722.388 456.687 720.732 454.942C719.081 453.19 718.253 450.697 718.253 447.46C718.253 444.258 719.033 441.723 720.6 439.847C722.167 437.978 724.317 437.041 727.045 437.041C729.561 437.041 731.453 437.843 732.722 439.434C733.993 441.033 734.624 443.326 734.624 446.321V448.497ZM729.688 444.853C729.665 443.55 729.407 442.572 728.917 441.917C728.432 441.257 727.676 440.932 726.645 440.932C725.691 440.932 724.904 441.239 724.288 441.864C723.672 442.483 723.328 443.48 723.254 444.853H729.688ZM754.276 447.082C754.276 448.68 754.079 450.136 753.689 451.451C753.299 452.76 752.786 453.845 752.151 454.701C751.492 455.596 750.744 456.275 749.906 456.735C749.069 457.194 748.175 457.424 747.22 457.424C746.337 457.424 745.588 457.306 744.973 457.07C744.355 456.834 743.725 456.505 743.086 456.08V464.164H738.123V437.649H743.086V439.67C743.848 438.91 744.624 438.291 745.419 437.819C746.214 437.348 747.132 437.112 748.171 437.112C750.099 437.112 751.601 438.002 752.668 439.771C753.74 441.546 754.276 443.98 754.276 447.082ZM749.163 447.2C749.163 445.314 748.904 443.94 748.392 443.09C747.874 442.235 747.061 441.811 745.951 441.811C745.485 441.811 745 441.9 744.507 442.077C744.008 442.259 743.533 442.513 743.086 442.848V452.607C743.416 452.766 743.768 452.872 744.144 452.92C744.52 452.967 744.898 452.99 745.264 452.99C746.577 452.99 747.555 452.507 748.2 451.546C748.838 450.585 749.163 449.134 749.163 447.2ZM765.919 457.565C764.569 457.565 763.337 457.365 762.217 456.958C761.102 456.558 760.129 455.938 759.305 455.095C758.487 454.252 757.851 453.196 757.4 451.917C756.953 450.638 756.727 449.14 756.727 447.424C756.727 445.62 756.967 444.058 757.452 442.743C757.931 441.434 758.605 440.343 759.47 439.476C760.307 438.662 761.271 438.061 762.362 437.683C763.454 437.301 764.593 437.112 765.768 437.112C766.823 437.112 767.796 437.259 768.69 437.542C769.579 437.831 770.412 438.208 771.183 438.669V443.969H770.482C770.289 443.763 770.055 443.521 769.785 443.244C769.513 442.966 769.179 442.695 768.784 442.43C768.407 442.182 767.993 441.97 767.546 441.805C767.095 441.634 766.573 441.552 765.976 441.552C764.648 441.552 763.634 442.077 762.923 443.132C762.208 444.187 761.855 445.62 761.855 447.424C761.855 449.293 762.217 450.709 762.951 451.675C763.68 452.642 764.715 453.126 766.056 453.126C766.682 453.126 767.245 453.038 767.744 452.861C768.248 452.678 768.662 452.471 768.991 452.229C769.306 451.999 769.579 451.757 769.819 451.504C770.059 451.251 770.28 451.003 770.482 450.762H771.183V456.062C770.403 456.522 769.589 456.887 768.737 457.159C767.886 457.43 766.949 457.565 765.919 457.565ZM790.381 457.047H785.573V445.177L778.847 457.047H774.739V437.649H779.552V448.273L785.78 437.649H790.381V457.047ZM807.692 441.864H802.756V457.047H797.795V441.864H792.86V437.649H807.692V441.864ZM825.412 448.497H814.056C814.132 450.018 814.592 451.18 815.443 451.988C816.291 452.79 817.542 453.196 819.198 453.196C820.247 453.196 821.258 452.96 822.241 452.489C823.225 452.012 824 451.51 824.575 450.968H825.125V455.955C824 456.522 822.947 456.929 821.954 457.182C820.962 457.436 819.865 457.565 818.661 457.565C815.557 457.565 813.177 456.687 811.521 454.942C809.869 453.19 809.041 450.697 809.041 447.46C809.041 444.258 809.823 441.723 811.389 439.847C812.955 437.978 815.105 437.041 817.833 437.041C820.349 437.041 822.241 437.843 823.511 439.434C824.782 441.033 825.412 443.326 825.412 446.321V448.497ZM820.478 444.853C820.454 443.55 820.195 442.572 819.706 441.917C819.222 441.257 818.464 440.932 817.434 440.932C816.479 440.932 815.694 441.239 815.076 441.864C814.461 442.483 814.117 443.48 814.042 444.853H820.478ZM841.538 441.864H836.602V457.047H831.64V441.864H826.706V437.649H841.538V441.864Z" fill="#05386B"/>
</g>
<defs>
<clipPath id="clip0">
<rect width="841.89" height="595.276" fill="white"/>
</clipPath>
</defs>
</svg>
